<?xml version="1.0" standalone="no"?>
<!DOCTYPE svg PUBLIC "-//W3C//DTD SVG 20010904//EN"
 "http://www.w3.org/TR/2001/REC-SVG-20010904/DTD/svg10.dtd">
<svg version="1.0" xmlns="http://www.w3.org/2000/svg"
 width="700.000000pt" height="700.000000pt" viewBox="0 0 700.000000 700.000000"
 preserveAspectRatio="xMidYMid meet">
<metadata>
Created by potrace 1.14, written by Peter Selinger 2001-2017
</metadata>
<g transform="translate(0.000000,700.000000) scale(0.100000,-0.100000)"
fill="#000000" stroke="none">
<path d="M6335 5654 c-277 -50 -513 -153 -745 -325 -90 -66 -161 -132 -520
-484 -314 -308 -466 -423 -650 -494 -155 -60 -146 -60 -327 -8 -483 138 -1027
191 -1603 157 -828 -50 -1538 -293 -1923 -660 -106 -100 -163 -172 -216 -272
-61 -113 -75 -173 -75 -318 0 -149 14 -205 83 -335 27 -49 67 -142 91 -205 52
-141 86 -210 157 -320 206 -317 498 -572 869 -758 254 -127 534 -214 880 -274
115 -20 164 -22 439 -22 326 0 409 7 625 50 485 97 925 303 1231 577 127 113
274 277 340 377 69 104 156 277 189 374 15 44 52 130 83 189 67 131 87 212 88
355 1 170 -39 284 -154 441 -56 76 -58 99 -21 227 112 388 417 770 880 1101
139 100 249 168 442 276 178 99 222 135 222 184 0 19 -7 47 -14 62 -19 36 -80
90 -122 107 -42 18 -145 17 -249 -2z m-3200 -1374 c644 -47 1224 -215 1594
-461 177 -117 285 -230 357 -374 45 -89 45 -92 45 -190 0 -106 -4 -124 -53
-220 -187 -368 -837 -681 -1630 -785 -641 -83 -1303 -39 -1871 126 -455 132
-831 355 -986 582 -77 113 -95 164 -99 278 -4 89 -1 108 20 161 152 376 732
693 1513 827 141 24 382 52 505 59 137 8 478 6 605 -3z"/>
<path d="M2564 3310 c-333 -23 -678 -98 -944 -205 -209 -84 -367 -184 -494
-313 l-58 -60 47 -27 c133 -79 457 -196 686 -249 361 -83 575 -106 1014 -106
325 0 510 12 706 44 379 64 651 144 921 273 134 64 132 60 50 140 -216 210
-620 382 -1087 462 -215 38 -615 57 -841 41z"/>
</g>
</svg>
