<?xml version="1.0" standalone="no"?>
<!DOCTYPE svg PUBLIC "-//W3C//DTD SVG 20010904//EN"
 "http://www.w3.org/TR/2001/REC-SVG-20010904/DTD/svg10.dtd">
<svg version="1.0" xmlns="http://www.w3.org/2000/svg"
 width="700.000000pt" height="700.000000pt" viewBox="0 0 700.000000 700.000000"
 preserveAspectRatio="xMidYMid meet">
<metadata>
Created by potrace 1.14, written by Peter Selinger 2001-2017
</metadata>
<g transform="translate(0.000000,700.000000) scale(0.100000,-0.100000)"
fill="#000000" stroke="none">
<path d="M6470 5673 c-21 -2 -105 -15 -185 -28 -158 -25 -385 -115 -557 -222
-144 -89 -240 -171 -528 -452 -321 -314 -360 -350 -460 -430 -99 -79 -206
-143 -310 -185 -157 -64 -160 -65 -301 -23 -139 40 -311 82 -379 92 -24 4 -47
8 -50 10 -3 2 -23 6 -45 9 -22 4 -67 11 -100 16 -33 5 -89 12 -125 15 -36 4
-70 8 -77 10 -79 26 -909 26 -1063 0 -14 -2 -47 -6 -75 -9 -117 -12 -154 -17
-230 -31 -44 -8 -96 -17 -115 -20 -73 -12 -320 -75 -426 -109 -596 -187 -1019
-504 -1139 -852 -22 -64 -28 -99 -30 -188 -3 -150 13 -217 89 -371 36 -71 73
-155 82 -185 23 -74 96 -230 133 -286 17 -25 31 -48 31 -51 0 -12 107 -151
174 -228 111 -125 163 -173 336 -308 111 -87 366 -227 545 -300 194 -80 529
-169 715 -192 30 -4 77 -10 104 -15 56 -9 616 -5 686 4 52 7 176 27 205 32 11
2 31 6 45 9 422 81 862 276 1150 508 77 62 268 250 329 322 41 50 121 160 121
169 0 3 15 29 33 58 44 70 89 168 126 271 16 46 54 133 84 193 76 149 90 205
90 364 0 141 -37 257 -119 375 -91 132 -87 123 -81 178 6 65 68 250 113 340
63 125 154 260 255 382 57 69 270 277 349 341 88 72 283 214 325 238 17 9 62
37 100 61 39 25 97 59 130 76 33 17 65 35 71 40 6 5 37 23 70 40 139 75 175
120 147 189 -35 88 -146 153 -243 143z m-3275 -1396 c22 -3 69 -8 105 -12 85
-8 199 -23 230 -30 14 -3 45 -8 70 -11 25 -3 65 -10 90 -16 25 -5 56 -12 70
-14 215 -40 565 -156 753 -250 64 -32 226 -126 252 -146 181 -139 265 -234
332 -375 34 -70 36 -82 36 -172 0 -82 -4 -105 -28 -161 -98 -233 -337 -430
-721 -595 -120 -52 -335 -125 -444 -151 -8 -2 -42 -10 -75 -18 -71 -17 -199
-43 -251 -52 -20 -3 -46 -8 -58 -10 -11 -2 -41 -6 -66 -9 -25 -3 -58 -8 -75
-10 -16 -2 -59 -7 -95 -10 -36 -3 -101 -10 -145 -14 -44 -5 -224 -7 -400 -6
-295 3 -359 5 -470 20 -22 2 -62 7 -90 10 -50 6 -208 31 -255 40 -14 3 -41 8
-60 11 -156 28 -431 108 -596 174 -401 160 -653 352 -772 587 -50 98 -59 244
-20 340 46 115 163 261 273 345 17 12 32 25 35 28 6 6 67 47 140 92 240 150
683 300 1070 363 58 10 112 19 120 20 8 2 44 6 80 10 36 3 76 8 90 10 14 2 63
7 110 10 46 4 86 8 88 10 5 5 631 -2 677 -8z"/>
<path d="M2627 3315 c-1 -2 -47 -5 -102 -9 -55 -3 -111 -8 -124 -11 -13 -2
-49 -7 -80 -10 -31 -4 -112 -18 -181 -31 -470 -94 -770 -229 -1008 -455 l-69
-66 66 -36 c119 -64 340 -148 566 -217 50 -15 304 -67 410 -85 55 -9 111 -18
125 -20 79 -14 257 -20 590 -20 371 0 469 4 605 24 132 19 150 22 246 42 52
11 104 21 115 23 179 36 540 157 644 216 14 8 27 15 30 15 3 1 26 12 52 25 48
24 48 24 32 49 -20 32 -42 53 -116 113 -297 242 -745 392 -1328 444 -68 6
-467 13 -473 9z"/>
</g>
</svg>
